# xmcd CD database file
#
# Track frame offsets:
#	150
#	17813
#	37694
#	53204
#	62880
#	86959
#	96221
#	108164
#	118994
#	132383
#	142797
#	154767
#	185597
#
# Disc length: 2809 seconds
#
# Revision: 0
# Processed by: cddbd v1.5.2PL0 Copyright (c) Steve Scherf et al.
# Submitted via: CDex 1.51
#
DISCID=b00af70d
DTITLE=John Cassel - Dinner Music at The Trapp Family Lodge
DYEAR=2004
DGENRE=Jazz
TTITLE0=Moonlight In Vermont
TTITLE1=Duke Ellington Medley
TTITLE2=As Time Goes By
TTITLE3=Memories (Theme from Cats)
TTITLE4=Phanton of the Opera Medley
TTITLE5=What'll I Do?
TTITLE6=Smoke Gets In Your Eyes
TTITLE7=Somewhere My Love (Theme From Dr Zhivago)
TTITLE8=Canadian Sunset
TTITLE9=The Wind Beneath My Wings
TTITLE10=Send In the Clowns
TTITLE11=Sound Of Music Medley
TTITLE12=Scott Joplin Medley
EXTD=YEAR: 2004
EXTT0=
EXTT1=
EXTT2=
EXTT3=
EXTT4=
EXTT5=
EXTT6=
EXTT7=
EXTT8=
EXTT9=
EXTT10=
EXTT11=
EXTT12=
PLAYORDER=
